<?xml version="1.0" encoding="iso-8859-1"?>
<!-- Generator: Adobe Illustrator 19.0.0, SVG Export Plug-In . SVG Version: 6.00 Build 0)  -->
<svg version="1.1" id="Capa_1" xmlns="http://www.w3.org/2000/svg" xmlns:xlink="http://www.w3.org/1999/xlink" x="0px" y="0px"
	 viewBox="0 0 480 480" style="enable-background:new 0 0 480 480;" xml:space="preserve">
<path style="fill:#DCDCDA;" d="M384,72C373.031,30.477,325.461,0,272,0c-52.824,0-92.355,31.219-104,72
	c-32.461,0.434-63.05,15.446-72,40c-2.45-0.183-5.496,0-8,0c-45.082,0-80,32.722-80,72s34.918,72,80,72h280
	c57.313-1.957,104-46.203,104-96C472,114.481,434.317,79.683,384,72z"/>
<g>
	<path style="fill:#6CC3E1;" d="M56,288h16v192H56V288z"/>
	<path style="fill:#6CC3E1;" d="M120,288h16v192h-16V288z"/>
	<path style="fill:#6CC3E1;" d="M328,288h16v192h-16V288z"/>
	<path style="fill:#6CC3E1;" d="M392,288h16v192h-16V288z"/>
</g>
<path style="fill:#ABAEA7;" d="M467.472,133.751C462.487,180.518,423.032,215.995,376,216H56
	c-15.657,0.012-31.056-3.993-44.723-11.633C23.029,236.331,53.963,257.149,88,256h280c57.313-1.957,104-46.203,104-96
	C471.996,151.056,470.465,142.179,467.472,133.751z"/>
<g>
	<path style="fill:#6E9AE0;" d="M56,432h16v48H56V432z"/>
	<path style="fill:#6E9AE0;" d="M120,416h16v64h-16V416z"/>
	<path style="fill:#6E9AE0;" d="M328,400h16v80h-16V400z"/>
	<path style="fill:#6E9AE0;" d="M392,384h16v96h-16V384z"/>
</g>
<path style="fill:#B5B591;" d="M371.073,255.753l-6.683-1.782c-33.763-9.003-63.084-8.896-82.467-37.971H192
	c-20.536,30.803-52.176,28.483-88.315,36.514L88,256h283.041C371.109,255.477,371.005,256.276,371.073,255.753z"/>
<path style="fill:#FAE249;" d="M304,304h-56l31.488-104h-69.984L184,336h56l-32,144L304,304z"/>
<g>
</g>
<g>
</g>
<g>
</g>
<g>
</g>
<g>
</g>
<g>
</g>
<g>
</g>
<g>
</g>
<g>
</g>
<g>
</g>
<g>
</g>
<g>
</g>
<g>
</g>
<g>
</g>
<g>
</g>
</svg>
