<svg class="svg-icon" style="width: 1em; height: 1em;vertical-align: middle;fill: currentColor;overflow: hidden;" viewBox="0 0 1024 1024" version="1.1" xmlns="http://www.w3.org/2000/svg"><path d="M699.072 332.5696c-11.52 1.2672-22.784 3.5584-33.728 6.5664-48.96-104.1152-154.752-176.2304-277.44-176.2304-169.2416 0-306.4448 137.216-306.4448 306.4576 0 140.416 94.464 258.688 223.2576 294.9376l-0.1792 0.0512c0.6272 0.1408 1.28 0.2816 1.92 0.448 7.7056 2.112 15.5136 3.9424 23.424 5.4656 62.656 14.0544 128 24.1152 194.5216 24.1152 77.6576 0 172.5952-5.0432 244.6848-23.0528 101.376-20.672 177.664-110.336 177.664-217.8304 0-131.1488-113.536-235.7504-247.68-220.928" fill="#CCCCCC" /><path d="M529.4976 889.6c-3.0208 0-6.0672-0.2304-9.088-0.9216a44.3136 44.3136 0 0 1-8.704-2.56 52.736 52.736 0 0 1-8.0384-4.3136c-2.56-1.7408-4.8896-3.712-7.104-5.8112a49.792 49.792 0 0 1-5.8112-7.104c-1.6384-2.56-3.0336-5.2352-4.1984-8.0256a44.5952 44.5952 0 0 1-2.6752-8.7296 40.0768 40.0768 0 0 1-0.9216-9.088 47.1552 47.1552 0 0 1 3.6096-17.792c1.152-2.7904 2.56-5.4656 4.1856-8.0256 1.7408-2.56 3.712-4.8896 5.8112-7.104a47.616 47.616 0 0 1 7.104-5.696c2.56-1.7536 5.2224-3.1488 8.0256-4.3136 2.7904-1.152 5.7088-2.0864 8.7296-2.6752 5.9264-1.152 12.096-1.152 18.1504 0 3.0208 0.5888 5.9392 1.5104 8.7296 2.688 2.7904 1.152 5.4656 2.56 8.0256 4.3008 2.56 1.6256 4.8896 3.6096 7.104 5.696 2.0864 2.2144 4.0704 4.544 5.8112 7.104 1.6384 2.56 3.0336 5.2352 4.1856 8.0256a46.336 46.336 0 0 1 3.6096 17.792c0 3.0336-0.3456 6.0672-0.9216 9.088a43.8528 43.8528 0 0 1-2.688 8.7296c-1.152 2.7904-2.56 5.4656-4.1856 8.0256-1.7408 2.56-3.712 5.0048-5.8112 7.104a58.112 58.112 0 0 1-7.104 5.8112c-2.56 1.6256-5.2352 3.1488-8.0256 4.3136-2.7904 1.152-5.7088 1.9712-8.7296 2.56a40.0768 40.0768 0 0 1-9.0752 0.9216M530.5728 770.2016a46.5536 46.5536 0 0 1-46.5408-46.5408c0-62.8992 35.2-85.4016 54.1312-97.4976 12.9664-8.2816 13.4656-11.392 13.4656-25.92 0-10.9184-11.0976-22.528-31.6544-22.528-16.4352 0-27.9936 3.456-34.3936 10.2656-8.9856 9.5872-9.0496 26.1248-9.0496 26.2912 0 27.3536-17.792 47.7952-43.456 49.4464-25.3952 1.7664-47.7952-17.8048-49.4464-43.4688-0.3584-5.7088-2.5344-56.9344 34.048-95.936 16.9728-18.112 48.512-39.6928 102.2976-39.6928 69.952 0 124.7488 50.7776 124.7488 115.6224 0 68.3008-36.7232 91.7504-56.4224 104.3456-3.4304 2.2016-8.1536 4.3136-9.6768 6.8608-1.4208 2.368-1.4976 2.9952-1.4976 12.2112a46.5536 46.5536 0 0 1-46.5536 46.5408" fill="#888B8E" /></svg>